<svg xmlns="http://www.w3.org/2000/svg" data-name="Layer 1" viewBox="0 0 512 512"><circle cx="261.25" cy="256" r="219.5" fill="#fdd402"/><path fill="#fbbf13" d="M101.75,256c0-111.0481,82.469-202.82007,189.5-217.45044a221.36948,221.36948,0,0,0-30-2.04956c-121.2265,0-219.5,98.27344-219.5,219.5s98.2735,219.5,219.5,219.5a221.36948,221.36948,0,0,0,30-2.04956C184.219,458.82007,101.75,367.0481,101.75,256Z"/><path fill="#74563a" d="M198.75 202a7.49974 7.49974 0 0 1-7.5-7.5 20.5 20.5 0 0 0-41 0 7.5 7.5 0 0 1-15 0 35.5 35.5 0 0 1 71 0A7.49974 7.49974 0 0 1 198.75 202zM379.75 202a7.49974 7.49974 0 0 1-7.5-7.5 20.5 20.5 0 0 0-41 0 7.5 7.5 0 0 1-15 0 35.5 35.5 0 0 1 71 0A7.49974 7.49974 0 0 1 379.75 202z"/><path fill="none" d="M384.5,289.5a125.12511,125.12511,0,0,1-63.75,108.99q-5.31006,3-10.93994,5.47A124.4802,124.4802,0,0,1,259.5,414.5h-7a124.52787,124.52787,0,0,1-50.32007-10.54q-5.61-2.47485-10.91992-5.46a124.77521,124.77521,0,0,1-63.76-109,291.23534,291.23534,0,0,0,128.52,30h1.48A291.16558,291.16558,0,0,0,384.5,289.5Z"/><path fill="none" d="M384.5 289.5a125.37631 125.37631 0 0 1-4.44 33.14l-.01.01a290.161 290.161 0 0 1-248.1 0h-.01a125.3945 125.3945 0 0 1-4.44-33.15 291.23618 291.23618 0 0 0 128.52 30h1.48A291.16582 291.16582 0 0 0 384.5 289.5zM320.75 398.49q-5.31006 3-10.93994 5.47A124.4802 124.4802 0 0 1 259.5 414.5h-7a124.52787 124.52787 0 0 1-50.32007-10.54q-5.61-2.47485-10.91992-5.46c14.18994-11.48 37.89-19 64.74-19S306.55005 387.02 320.75 398.49z"/><path fill="#74563a" d="M384.5,289.5a124.90978,124.90978,0,0,1-125,125h-7a124.84973,124.84973,0,0,1-125-125,291.23618,291.23618,0,0,0,128.52,30h1.48A291.16582,291.16582,0,0,0,384.5,289.5Z"/><path fill="#674b34" d="M232.18,403.96a124.71321,124.71321,0,0,1-74.00879-101.4707A288.8545,288.8545,0,0,1,127.5,289.5a124.89715,124.89715,0,0,0,125,125h7c3.878,0,7.71161-.187,11.49939-.53247A124.13111,124.13111,0,0,1,232.18,403.96Z"/><path fill="#e5303e" d="M191.27319,398.491c3.53479,1.99,7.16968,3.82336,10.90674,5.469A124.52787,124.52787,0,0,0,252.5,414.5h7a124.4802,124.4802,0,0,0,50.31006-10.54q5.61016-2.46936,10.9209-5.4668C306.53674,387.0166,282.83911,379.5,256.00171,379.5,229.16455,379.5,205.46484,387.01978,191.27319,398.491Z"/><path fill="#fff" d="M384.5,289.5a125.37631,125.37631,0,0,1-4.44,33.14l-.01.01a290.161,290.161,0,0,1-248.1,0h-.01a125.3945,125.3945,0,0,1-4.44-33.15,291.23618,291.23618,0,0,0,128.52,30h1.48A291.16582,291.16582,0,0,0,384.5,289.5Z"/><path fill="#4ebaea" d="M361.33344,268.05526c-3.04713-1.98726-6.74318-2.57219-9.31536,0s-1.98727,6.26823,0,9.31536c23.2884,35.7089,13.973,76.07547,43.47169,105.57412A50.5,50.5,0,1,0,466.90756,311.527C437.40891,282.0283,397.04233,291.34367,361.33344,268.05526Z"/><path fill="#2e99d4" d="M425.48975,382.9447c-29.18079-29.18078-20.38453-68.996-42.73523-104.4176a101.43878,101.43878,0,0,1-21.42108-10.47192c-3.04712-1.98719-6.74317-2.57215-9.31537,0s-1.98725,6.26831,0,9.31543c23.28839,35.709,13.97308,76.07543,43.47168,105.57409a50.4836,50.4836,0,0,0,50.70892,12.5105A50.26221,50.26221,0,0,1,425.48975,382.9447Z"/><path fill="#e0e0e2" d="M166.57,336.35a288.07623,288.07623,0,0,1-34.62-13.70008h-.01A125.39371,125.39371,0,0,1,127.5,289.5c.71.35,1.45.71,2.21,1.08,2.65,1.28,5.57,2.64,8.75,4.05q.67493.29994,1.38.6c.47.21.94.41,1.41.61q5.7,2.46,12.38,4.99c.72.27,1.46.54,2.2.81.77.28992,1.55.57,2.34.85a124.13128,124.13128,0,0,0,3.77,20.15991A122.51425,122.51425,0,0,0,166.57,336.35Z"/><path fill="#e0e0e2" d="M166.57,336.35a288.07623,288.07623,0,0,1-34.62-13.70008h-.01A125.39371,125.39371,0,0,1,127.5,289.5c.71.35,1.45.71,2.21,1.08,2.65,1.28,5.57,2.64,8.75,4.05q.67493.29994,1.38.6c.47.21.94.41,1.41.61q5.7,2.46,12.38,4.99c.73.27,1.46.54,2.2.81.77.28992,1.55.57,2.34.85a124.13128,124.13128,0,0,0,3.77,20.15991A122.51425,122.51425,0,0,0,166.57,336.35Z"/><path fill="#4ebaea" d="M150.66656,268.05526c3.04713-1.98726,6.74318-2.57219,9.31536,0s1.98727,6.26823,0,9.31536c-23.2884,35.7089-13.973,76.07547-43.47169,105.57412A50.5,50.5,0,1,1,45.09244,311.527C74.59109,282.0283,114.95767,291.34367,150.66656,268.05526Z"/><path fill="#2e99d4" d="M75.09247,382.9447a50.5,50.5,0,0,1,0-71.41784c23.71576-23.71582,54.45587-22.34729,84.153-32.99976.24341-.38574.48554-.77173.73645-1.15649,1.98725-3.04712,2.57221-6.74317,0-9.31543s-6.26825-1.98719-9.31537,0c-35.70892,23.28845-76.0755,13.97314-105.57409,43.47168A50.499,50.499,0,0,0,95.80133,395.4552,50.262,50.262,0,0,1,75.09247,382.9447Z"/><path fill="#b72732" d="M271,413.97c-3.79.34009-7.62.53-11.5.53h-7a124.52716,124.52716,0,0,1-50.32-10.54c-.94-.40991-1.86-.84-2.78-1.27-.93005-.43994-1.84-.87988-2.75-1.34-.77-.38-1.53-.77-2.28-1.18006-.75-.3999-1.51-.80993-2.25-1.22-.29-.1499-.57-.3-.85-.46a70.8707,70.8707,0,0,1,15.68-9.39A124.34787,124.34787,0,0,0,271,413.97Z"/><path fill="#b72732" d="M271,413.97c-3.79.34009-7.62.53-11.5.53h-7a124.52716,124.52716,0,0,1-50.32-10.54c-.94-.40991-1.86-.84-2.78-1.27-.93005-.43994-1.84-.87988-2.75-1.34-.77-.38-1.53-.77-2.28-1.18006-.75-.3999-1.51-.80993-2.25-1.22-.29-.1499-.57-.3-.85-.46a70.8707,70.8707,0,0,1,15.68-9.39A124.34787,124.34787,0,0,0,271,413.97Z"/></svg>